<svg xmlns="http://www.w3.org/2000/svg" xmlns:xlink="http://www.w3.org/1999/xlink" width="1000" zoomAndPan="magnify" viewBox="0 0 750 262.499992" height="350" preserveAspectRatio="xMidYMid meet" version="1.0"><defs><g/><clipPath id="9a326d51f8"><path d="M 260.019531 24.132812 L 317 24.132812 L 317 238.222656 L 260.019531 238.222656 Z M 260.019531 24.132812 " clip-rule="nonzero"/></clipPath><clipPath id="01da57a5fd"><path d="M 1 24.132812 L 58 24.132812 L 58 238.222656 L 1 238.222656 Z M 1 24.132812 " clip-rule="nonzero"/></clipPath></defs><g clip-path="url(#9a326d51f8)"><path fill="#100f0d" d="M 316.988281 238.222656 L 260.472656 238.222656 L 260.472656 213.035156 L 291.867188 213.035156 L 291.867188 49.320312 L 260.472656 49.320312 L 260.472656 24.132812 L 316.988281 24.132812 L 316.988281 238.222656 " fill-opacity="1" fill-rule="nonzero"/></g><g clip-path="url(#01da57a5fd)"><path fill="#100f0d" d="M 1.441406 238.222656 L 57.957031 238.222656 L 57.957031 213.035156 L 26.5625 213.035156 L 26.5625 49.320312 L 57.957031 49.320312 L 57.957031 24.132812 L 1.441406 24.132812 L 1.441406 238.222656 " fill-opacity="1" fill-rule="nonzero"/></g><g fill="#000000" fill-opacity="1"><g transform="translate(68.813332, 178.911208)"><g><path d="M 33.59375 0 L 8.890625 0 L 8.890625 -104.40625 L 33.59375 -104.40625 Z M 34.34375 -55.75 L 62.90625 -104.40625 L 88.8125 -104.40625 L 59.28125 -57.546875 L 91.671875 0 L 63.046875 0 Z M 34.34375 -55.75 "/></g></g></g><g fill="#000000" fill-opacity="1"><g transform="translate(159.199752, 178.911208)"><g><path d="M 79.390625 -104.40625 L 79.390625 -37.59375 C 79.390625 -31.507812 78.460938 -26.003906 76.609375 -21.078125 C 74.753906 -16.160156 72.03125 -11.96875 68.4375 -8.5 C 64.84375 -5.039062 60.445312 -2.378906 55.25 -0.515625 C 50.050781 1.335938 44.113281 2.265625 37.4375 2.265625 C 30.707031 2.265625 24.894531 1.398438 20 -0.328125 C 15.101562 -2.066406 10.394531 -4.46875 5.875 -7.53125 L 15.296875 -22.75 C 18.859375 -20.289062 22.195312 -18.570312 25.3125 -17.59375 C 28.425781 -16.613281 31.96875 -16.125 35.9375 -16.125 C 41.300781 -16.125 45.78125 -17.84375 49.375 -21.28125 C 52.96875 -24.71875 54.765625 -30.050781 54.765625 -37.28125 L 54.765625 -86.328125 L 22.671875 -86.328125 L 22.671875 -104.40625 Z M 79.390625 -104.40625 "/></g></g></g><g fill="#000000" fill-opacity="1"><g transform="translate(356.284257, 118.558409)"><g><path d="M 24.34375 0 L 6.4375 0 L 6.4375 -75.65625 L 24.34375 -75.65625 Z M 24.890625 -40.390625 L 45.578125 -75.65625 L 64.359375 -75.65625 L 42.953125 -41.703125 L 66.4375 0 L 45.6875 0 Z M 24.890625 -40.390625 "/></g></g></g><g fill="#000000" fill-opacity="1"><g transform="translate(421.782206, 118.558409)"><g><path d="M 43.671875 -16.328125 L 21.5 -16.328125 L 17.515625 0 L -1.203125 0 L 21.9375 -75.65625 L 43.671875 -75.65625 L 66.8125 0 L 47.65625 0 Z M 24.34375 -29.3125 L 40.71875 -29.3125 L 32.53125 -62.78125 Z M 24.34375 -29.3125 "/></g></g></g><g fill="#000000" fill-opacity="1"><g transform="translate(487.280154, 118.558409)"><g><path d="M 10.15625 0 L 10.15625 -75.65625 L 28.0625 -75.65625 L 28.0625 -14.140625 L 60.859375 -14.140625 L 59 0 Z M 10.15625 0 "/></g></g></g><g fill="#000000" fill-opacity="1"><g transform="translate(552.778102, 118.558409)"><g><path d="M 28.0625 -62.890625 L 28.0625 -44.703125 L 54.265625 -44.703125 L 54.265625 -32.15625 L 28.0625 -32.15625 L 28.0625 -12.828125 L 59.65625 -12.828125 L 59.65625 0 L 10.15625 0 L 10.15625 -75.65625 L 59.609375 -75.65625 L 57.8125 -62.890625 Z M 28.0625 -62.890625 "/></g></g></g><g fill="#000000" fill-opacity="1"><g transform="translate(618.276051, 118.558409)"><g><path d="M 43.890625 -22.875 C 43.890625 -25.53125 43.367188 -27.628906 42.328125 -29.171875 C 41.296875 -30.722656 39.84375 -31.828125 37.96875 -32.484375 C 36.09375 -33.140625 33.898438 -33.46875 31.390625 -33.46875 L 24.015625 -33.46875 L 24.015625 -13.046875 L 30.625 -13.046875 C 32.375 -13.046875 34.035156 -13.171875 35.609375 -13.421875 C 37.191406 -13.679688 38.613281 -14.15625 39.875 -14.84375 C 41.132812 -15.539062 42.117188 -16.535156 42.828125 -17.828125 C 43.535156 -19.117188 43.890625 -20.800781 43.890625 -22.875 Z M 41.046875 -54.53125 C 41.046875 -57.507812 40.109375 -59.660156 38.234375 -60.984375 C 36.359375 -62.316406 33.457031 -62.984375 29.53125 -62.984375 L 24.015625 -62.984375 L 24.015625 -45.46875 L 30.078125 -45.46875 C 33.929688 -45.46875 36.722656 -46.175781 38.453125 -47.59375 C 40.179688 -49.019531 41.046875 -51.332031 41.046875 -54.53125 Z M 62.34375 -22.15625 C 62.34375 -17.789062 61.503906 -14.171875 59.828125 -11.296875 C 58.148438 -8.421875 55.851562 -6.164062 52.9375 -4.53125 C 50.03125 -2.894531 46.710938 -1.726562 42.984375 -1.03125 C 39.253906 -0.34375 35.332031 0 31.21875 0 L 6.109375 0 L 6.109375 -75.65625 L 30.078125 -75.65625 C 33.972656 -75.65625 37.65625 -75.335938 41.125 -74.703125 C 44.601562 -74.066406 47.6875 -73.007812 50.375 -71.53125 C 53.070312 -70.0625 55.191406 -68.078125 56.734375 -65.578125 C 58.285156 -63.085938 59.0625 -60.003906 59.0625 -56.328125 C 59.0625 -53.304688 58.421875 -50.695312 57.140625 -48.5 C 55.867188 -46.300781 54.175781 -44.5 52.0625 -43.09375 C 49.957031 -41.695312 47.671875 -40.6875 45.203125 -40.0625 C 47.890625 -39.625 50.550781 -38.773438 53.1875 -37.515625 C 55.832031 -36.265625 58.019531 -34.398438 59.75 -31.921875 C 61.476562 -29.453125 62.34375 -26.195312 62.34375 -22.15625 Z M 62.34375 -22.15625 "/></g></g></g><g fill="#000000" fill-opacity="1"><g transform="translate(356.284257, 215.268745)"><g><path d="M 57.53125 -75.65625 L 57.53125 -27.234375 C 57.53125 -22.835938 56.859375 -18.851562 55.515625 -15.28125 C 54.171875 -11.71875 52.195312 -8.679688 49.59375 -6.171875 C 46.988281 -3.660156 43.800781 -1.726562 40.03125 -0.375 C 36.269531 0.96875 31.96875 1.640625 27.125 1.640625 C 22.25 1.640625 18.035156 1.015625 14.484375 -0.234375 C 10.941406 -1.492188 7.53125 -3.234375 4.25 -5.453125 L 11.078125 -16.484375 C 13.660156 -14.703125 16.078125 -13.457031 18.328125 -12.75 C 20.585938 -12.039062 23.15625 -11.6875 26.03125 -11.6875 C 29.925781 -11.6875 33.175781 -12.929688 35.78125 -15.421875 C 38.382812 -17.910156 39.6875 -21.773438 39.6875 -27.015625 L 39.6875 -62.5625 L 16.4375 -62.5625 L 16.4375 -75.65625 Z M 57.53125 -75.65625 "/></g></g></g><g fill="#000000" fill-opacity="1"><g transform="translate(421.782206, 215.268745)"><g><path d="M 28.0625 -62.890625 L 28.0625 -44.703125 L 54.265625 -44.703125 L 54.265625 -32.15625 L 28.0625 -32.15625 L 28.0625 -12.828125 L 59.65625 -12.828125 L 59.65625 0 L 10.15625 0 L 10.15625 -75.65625 L 59.609375 -75.65625 L 57.8125 -62.890625 Z M 28.0625 -62.890625 "/></g></g></g><g fill="#000000" fill-opacity="1"><g transform="translate(487.280154, 215.268745)"><g><path d="M 38.09375 0 L 18.171875 -60.859375 C 18.429688 -59.222656 18.710938 -57.25 19.015625 -54.9375 C 19.328125 -52.625 19.628906 -50.054688 19.921875 -47.234375 C 20.210938 -44.421875 20.445312 -41.429688 20.625 -38.265625 C 20.8125 -35.097656 20.90625 -31.859375 20.90625 -28.546875 L 20.90625 0 L 5.671875 0 L 5.671875 -75.65625 L 28 -75.65625 L 47.328125 -15.125 C 46.921875 -17.414062 46.507812 -20.148438 46.09375 -23.328125 C 45.675781 -26.515625 45.320312 -30.070312 45.03125 -34 C 44.738281 -37.9375 44.59375 -42.160156 44.59375 -46.671875 L 44.59375 -75.65625 L 59.828125 -75.65625 L 59.828125 0 Z M 38.09375 0 "/></g></g></g><g fill="#000000" fill-opacity="1"><g transform="translate(552.778102, 215.268745)"><g><path d="M 62.015625 -22.109375 C 62.015625 -17.410156 60.785156 -13.257812 58.328125 -9.65625 C 55.867188 -6.050781 52.347656 -3.226562 47.765625 -1.1875 C 43.179688 0.84375 37.664062 1.859375 31.21875 1.859375 C 24.09375 1.859375 18.117188 0.8125 13.296875 -1.28125 C 8.472656 -3.375 4.476562 -5.96875 1.3125 -9.0625 L 10.375 -19.109375 C 13.175781 -16.671875 16.269531 -14.785156 19.65625 -13.453125 C 23.039062 -12.128906 26.75 -11.46875 30.78125 -11.46875 C 33.289062 -11.46875 35.492188 -11.828125 37.390625 -12.546875 C 39.285156 -13.273438 40.757812 -14.332031 41.8125 -15.71875 C 42.863281 -17.101562 43.390625 -18.78125 43.390625 -20.75 C 43.390625 -22.601562 42.972656 -24.164062 42.140625 -25.4375 C 41.304688 -26.707031 39.894531 -27.851562 37.90625 -28.875 C 35.925781 -29.894531 33.171875 -30.929688 29.640625 -31.984375 C 23.742188 -33.804688 19.003906 -35.804688 15.421875 -37.984375 C 11.835938 -40.171875 9.234375 -42.703125 7.609375 -45.578125 C 5.992188 -48.453125 5.1875 -51.800781 5.1875 -55.625 C 5.1875 -60.25 6.46875 -64.195312 9.03125 -67.46875 C 11.59375 -70.738281 15.039062 -73.238281 19.375 -74.96875 C 23.707031 -76.695312 28.472656 -77.5625 33.671875 -77.5625 C 39.535156 -77.5625 44.703125 -76.710938 49.171875 -75.015625 C 53.648438 -73.328125 57.53125 -70.921875 60.8125 -67.796875 L 52.34375 -58.078125 C 49.800781 -60.222656 47.054688 -61.8125 44.109375 -62.84375 C 41.160156 -63.882812 38.15625 -64.40625 35.09375 -64.40625 C 32.84375 -64.40625 30.859375 -64.125 29.140625 -63.5625 C 27.429688 -63 26.101562 -62.171875 25.15625 -61.078125 C 24.21875 -59.984375 23.75 -58.617188 23.75 -56.984375 C 23.75 -55.378906 24.203125 -54.03125 25.109375 -52.9375 C 26.015625 -51.851562 27.597656 -50.828125 29.859375 -49.859375 C 32.117188 -48.898438 35.25 -47.78125 39.25 -46.5 C 44.007812 -45.050781 48.09375 -43.316406 51.5 -41.296875 C 54.90625 -39.273438 57.507812 -36.734375 59.3125 -33.671875 C 61.113281 -30.617188 62.015625 -26.765625 62.015625 -22.109375 Z M 62.015625 -22.109375 "/></g></g></g><g fill="#000000" fill-opacity="1"><g transform="translate(618.276051, 215.268745)"><g><path d="M 28.0625 -62.890625 L 28.0625 -44.703125 L 54.265625 -44.703125 L 54.265625 -32.15625 L 28.0625 -32.15625 L 28.0625 -12.828125 L 59.65625 -12.828125 L 59.65625 0 L 10.15625 0 L 10.15625 -75.65625 L 59.609375 -75.65625 L 57.8125 -62.890625 Z M 28.0625 -62.890625 "/></g></g></g><g fill="#000000" fill-opacity="1"><g transform="translate(683.773999, 215.268745)"><g><path d="M 38.09375 0 L 18.171875 -60.859375 C 18.429688 -59.222656 18.710938 -57.25 19.015625 -54.9375 C 19.328125 -52.625 19.628906 -50.054688 19.921875 -47.234375 C 20.210938 -44.421875 20.445312 -41.429688 20.625 -38.265625 C 20.8125 -35.097656 20.90625 -31.859375 20.90625 -28.546875 L 20.90625 0 L 5.671875 0 L 5.671875 -75.65625 L 28 -75.65625 L 47.328125 -15.125 C 46.921875 -17.414062 46.507812 -20.148438 46.09375 -23.328125 C 45.675781 -26.515625 45.320312 -30.070312 45.03125 -34 C 44.738281 -37.9375 44.59375 -42.160156 44.59375 -46.671875 L 44.59375 -75.65625 L 59.828125 -75.65625 L 59.828125 0 Z M 38.09375 0 "/></g></g></g></svg>