<svg xmlns="http://www.w3.org/2000/svg" xmlns:xlink="http://www.w3.org/1999/xlink" width="520" zoomAndPan="magnify" viewBox="0 0 390 262.499992" height="350" preserveAspectRatio="xMidYMid meet" version="1.0"><defs><g/><clipPath id="67aea84354"><path d="M 319 0 L 389 0 L 389 262 L 319 262 Z M 319 0 " clip-rule="nonzero"/></clipPath><clipPath id="b11645e4d6"><path d="M 1 0 L 71 0 L 71 262 L 1 262 Z M 1 0 " clip-rule="nonzero"/></clipPath></defs><g clip-path="url(#67aea84354)"><path fill="#100f0d" d="M 388.394531 262.433594 L 319.117188 262.433594 L 319.117188 231.558594 L 357.601562 231.558594 L 357.601562 30.878906 L 319.117188 30.878906 L 319.117188 0 L 388.394531 0 L 388.394531 262.433594 " fill-opacity="1" fill-rule="nonzero"/></g><g clip-path="url(#b11645e4d6)"><path fill="#100f0d" d="M 1.59375 262.433594 L 70.871094 262.433594 L 70.871094 231.558594 L 32.386719 231.558594 L 32.386719 30.878906 L 70.871094 30.878906 L 70.871094 0 L 1.59375 0 L 1.59375 262.433594 " fill-opacity="1" fill-rule="nonzero"/></g><g fill="#000000" fill-opacity="1"><g transform="translate(84.209633, 189.729757)"><g><path d="M 41.1875 0 L 10.890625 0 L 10.890625 -127.984375 L 41.1875 -127.984375 Z M 42.109375 -68.328125 L 77.109375 -127.984375 L 108.875 -127.984375 L 72.671875 -70.546875 L 112.375 0 L 77.296875 0 Z M 42.109375 -68.328125 "/></g></g></g><g fill="#000000" fill-opacity="1"><g transform="translate(195.005877, 189.729757)"><g><path d="M 97.328125 -127.984375 L 97.328125 -46.078125 C 97.328125 -38.628906 96.1875 -31.890625 93.90625 -25.859375 C 91.632812 -19.828125 88.296875 -14.6875 83.890625 -10.4375 C 79.492188 -6.1875 74.109375 -2.921875 67.734375 -0.640625 C 61.359375 1.628906 54.078125 2.765625 45.890625 2.765625 C 37.640625 2.765625 30.515625 1.707031 24.515625 -0.40625 C 18.515625 -2.53125 12.742188 -5.472656 7.203125 -9.234375 L 18.75 -27.890625 C 23.113281 -24.867188 27.203125 -22.757812 31.015625 -21.5625 C 34.835938 -20.363281 39.179688 -19.765625 44.046875 -19.765625 C 50.628906 -19.765625 56.125 -21.867188 60.53125 -26.078125 C 64.9375 -30.296875 67.140625 -36.835938 67.140625 -45.703125 L 67.140625 -105.828125 L 27.796875 -105.828125 L 27.796875 -127.984375 Z M 97.328125 -127.984375 "/></g></g></g></svg>